<?xml version="1.0" encoding="iso-8859-1"?>
<!-- Generator: Adobe Illustrator 19.0.0, SVG Export Plug-In . SVG Version: 6.00 Build 0)  -->
<svg version="1.1" id="Layer_1" xmlns="http://www.w3.org/2000/svg" xmlns:xlink="http://www.w3.org/1999/xlink" x="0px" y="0px"
	 viewBox="0 0 512 512" style="enable-background:new 0 0 512 512;" xml:space="preserve">
<path style="fill:#C03A2B;" d="M35.31,52.966H476.69c19.5,0,35.31,15.81,35.31,35.31v335.448c0,19.5-15.81,35.31-35.31,35.31H35.31
	c-19.5,0-35.31-15.81-35.31-35.31V88.276C0,68.776,15.81,52.966,35.31,52.966z"/>
<path style="fill:#7F8C8D;" d="M467.862,114.759v211.862c-0.026,9.737-7.918,17.629-17.655,17.655h-2.295
	c-17.037-20.674-47.607-23.623-68.273-6.585c-2.401,1.977-4.608,4.184-6.585,6.585H138.946
	c-17.037-20.674-47.607-23.623-68.273-6.585c-2.401,1.977-4.608,4.184-6.585,6.585h-2.295c-9.737-0.026-17.629-7.918-17.655-17.655
	V114.759c0.026-9.737,7.918-17.629,17.655-17.655h388.414C459.944,97.13,467.836,105.022,467.862,114.759z"/>
<g>
	<path style="fill:#2C2F38;" d="M150.069,375.172c0.026,26.836-21.716,48.613-48.552,48.64
		c-26.836,0.026-48.614-21.716-48.64-48.552c-0.026-26.836,21.716-48.614,48.552-48.64c14.513-0.009,28.275,6.462,37.517,17.655
		C146.132,352.971,150.069,363.891,150.069,375.172z"/>
	<path style="fill:#2C2F38;" d="M459.034,375.172c0.026,26.836-21.716,48.613-48.552,48.64
		c-26.836,0.026-48.614-21.716-48.64-48.552c-0.026-26.836,21.716-48.614,48.552-48.64c14.513-0.009,28.275,6.462,37.517,17.655
		C455.097,352.971,459.034,363.891,459.034,375.172z"/>
	<path style="fill:#2C2F38;" d="M97.103,141.241H79.448c-4.873,0-8.828-3.955-8.828-8.828c0-4.873,3.955-8.828,8.828-8.828h17.655
		c4.873,0,8.828,3.955,8.828,8.828C105.931,137.287,101.976,141.241,97.103,141.241z"/>
	<path style="fill:#2C2F38;" d="M203.034,141.241h-70.621c-4.873,0-8.828-3.955-8.828-8.828c0-4.873,3.955-8.828,8.828-8.828h70.621
		c4.873,0,8.828,3.955,8.828,8.828C211.862,137.287,207.907,141.241,203.034,141.241z"/>
	<path style="fill:#2C2F38;" d="M335.448,208.808c0.018,5.491-1.077,10.929-3.222,15.978l-1.315,2.286l-71.53,80.375
		c-1.66,1.871-4.52,2.039-6.382,0.38c-0.132-0.124-0.265-0.247-0.38-0.38l-71.521-80.375l-1.315-2.286
		c-4.299-10.222-4.299-21.734,0-31.956c8.607-20.762,32.415-30.623,53.177-22.016c4.996,2.074,9.534,5.12,13.338,8.96
		c4.087,4.396,7.38,9.481,9.719,15.007l0,0c2.339-5.526,5.632-10.611,9.719-15.007c15.934-15.943,41.772-15.96,57.724-0.026
		c3.752,3.752,6.735,8.192,8.792,13.082C334.371,197.888,335.466,203.317,335.448,208.808z"/>
</g>
<g>
	<path style="fill:#5E5F62;" d="M97.103,361.931c-1.156-0.018-2.295-0.256-3.354-0.706c-1.068-0.45-2.057-1.077-2.913-1.854
		c-0.812-0.83-1.448-1.819-1.854-2.913c-0.945-2.136-0.945-4.573,0-6.709c0.424-1.077,1.05-2.066,1.854-2.913
		c0.856-0.777,1.845-1.404,2.913-1.854c3.293-1.342,7.062-0.609,9.622,1.854c0.777,0.856,1.404,1.845,1.854,2.913
		c0.945,2.136,0.945,4.573,0,6.709c-0.424,1.077-1.059,2.066-1.854,2.913C101.676,360.978,99.443,361.896,97.103,361.931z"/>
	<path style="fill:#5E5F62;" d="M414.897,406.069c-2.339-0.018-4.582-0.936-6.268-2.56c-1.615-1.695-2.525-3.928-2.56-6.268
		c-0.035-1.156,0.212-2.304,0.706-3.354c0.406-1.095,1.033-2.083,1.854-2.913c0.415-0.38,0.856-0.733,1.315-1.059
		c0.494-0.335,1.033-0.6,1.598-0.794c0.503-0.256,1.033-0.433,1.589-0.53c1.13-0.265,2.313-0.265,3.443,0
		c0.583,0.079,1.148,0.265,1.677,0.53c0.565,0.194,1.095,0.459,1.589,0.794c0.459,0.327,0.909,0.68,1.324,1.059
		c3.416,3.478,3.416,9.057,0,12.535C419.478,405.133,417.236,406.051,414.897,406.069z"/>
</g>
<g>
	<path style="fill:#E64C3C;" d="M308.966,388.414H203.034c-4.873,0-8.828-3.955-8.828-8.828s3.955-8.828,8.828-8.828h105.931
		c4.873,0,8.828,3.955,8.828,8.828S313.838,388.414,308.966,388.414z"/>
	<path style="fill:#E64C3C;" d="M308.966,423.724H203.034c-4.873,0-8.828-3.955-8.828-8.828s3.955-8.828,8.828-8.828h105.931
		c4.873,0,8.828,3.955,8.828,8.828S313.838,423.724,308.966,423.724z"/>
</g>
<g>
</g>
<g>
</g>
<g>
</g>
<g>
</g>
<g>
</g>
<g>
</g>
<g>
</g>
<g>
</g>
<g>
</g>
<g>
</g>
<g>
</g>
<g>
</g>
<g>
</g>
<g>
</g>
<g>
</g>
</svg>
